<?xml version="1.0" encoding="utf-8"?><svg version="1.1" id="Layer_1" xmlns="http://www.w3.org/2000/svg" xmlns:xlink="http://www.w3.org/1999/xlink" x="0px" y="0px" viewBox="0 0 122.88 107.27" style="enable-background:new 0 0 122.88 107.27" xml:space="preserve"><g><path d="M22.48,0h77.92c6.15,0,11.75,2.53,15.82,6.6c4.11,4.11,6.67,9.8,6.67,16.06v61.96c0,6.26-2.55,11.94-6.67,16.06 c-4.07,4.07-9.67,6.6-15.82,6.6H22.48c-6.15,0-11.75-2.53-15.82-6.6C2.55,96.56,0,90.88,0,84.62V22.65 c0-6.26,2.55-11.95,6.66-16.06C10.73,2.53,16.33,0,22.48,0L22.48,0z M76.21,60.91c1.45,1.01,2.4,1.66,2.85,1.91 c0.66,0.38,1.57,0.82,2.7,1.32l-3.23,6.54c-1.63-0.79-3.25-1.73-4.84-2.82c-1.6-1.09-2.72-1.91-3.36-2.46 c-2.58,1.12-5.81,1.68-9.71,1.68c-5.75,0-10.29-1.5-13.61-4.49c-3.93-3.54-5.89-8.52-5.89-14.93c0-6.23,1.72-11.06,5.15-14.52 c3.44-3.44,8.23-5.17,14.39-5.17c6.28,0,11.12,1.68,14.54,5.06c3.42,3.36,5.13,8.19,5.13,14.46 C80.33,53.09,78.96,57.55,76.21,60.91L76.21,60.91z M67.25,54.91c0.93-1.66,1.4-4.16,1.4-7.48c0-3.81-0.71-6.53-2.13-8.17 c-1.43-1.63-3.38-2.45-5.88-2.45c-2.33,0-4.22,0.84-5.66,2.5c-1.45,1.66-2.18,4.27-2.18,7.81c0,4.13,0.7,7.03,2.11,8.69 c1.42,1.66,3.36,2.5,5.81,2.5c0.79,0,1.54-0.08,2.25-0.23c-0.99-0.95-2.54-1.84-4.66-2.69l1.83-4.2c1.04,0.18,1.85,0.42,2.42,0.7 c0.58,0.27,1.71,1,3.39,2.17C66.35,54.34,66.79,54.62,67.25,54.91L67.25,54.91z M4.54,76.22c0.79,3.18,2.34,6.02,4.44,8.29 c3.09,3.33,7.35,5.4,12.05,5.4h80.83c0.19,0,0.38,0,0.57-0.01l1.15-0.08c4.01-0.44,7.62-2.39,10.33-5.31 c2.1-2.26,3.65-5.1,4.44-8.28V22.65c0-4.85-2-9.28-5.21-12.49c-3.26-3.26-7.76-5.28-12.73-5.28H22.48c-4.97,0-9.48,2.02-12.73,5.28 c-3.22,3.22-5.21,7.64-5.21,12.49V76.22L4.54,76.22z"/></g></svg>